<svg xmlns="http://www.w3.org/2000/svg" width="128" height="128" viewBox="0 0 100 100"><path fill="#db2777" d="M38.004 76.792C27.41 78.29 20 81.872 20 87.143C20 94.243 32.381 100 50 100s30-5.756 30-12.857c0-5.272-7.41-8.853-18.003-10.35l-1.468 2.499C68.514 80.399 74 82.728 74 85.429c0 3.787-10.745 6.857-24 6.857s-24-3.07-24-6.857c-.001-2.692 5.45-5.018 13.459-6.13z" color="#db2777"/><path fill="#db2777" fill-rule="evenodd" d="m50 0l-.111.002l-.047.002l-.031.002l-.104.006l-.084.01l-.062.005l-.112.018l-.047.008l-.084.015l-.076.016l-.045.01l-.129.033l-.119.035l-.074.025l-.107.038l-.145.058l-.111.049l-.073.035l-.1.053l-.124.07l-.012.006l-.094.059l-.127.084l-.005.006l-.092.068l-.05.037l-.062.05l-.07.06l-.008.007l-.082.074l-.113.11l-.096.103l-.023.024l-.04.047l-.075.09l-.018.023l-.082.11l-.082.118l-.008.01l-.058.094l-.059.098l-.037.068l-.006.01l-.05.1l-.046.095l-.039.086l-.002.004l-.04.101l-.042.11l-.023.072l-.01.025l-.039.135l-.004.018l-.025.097l-.032.147l-.02.115l-.01.076l-.005.03l-.013.123l-.004.054l-.008.11v.025L46.5 3.5v80A3.5 3.5 0 0 0 50 87a3.5 3.5 0 0 0 3.5-3.5V45.773l42.922-19.076a3.5 3.5 0 0 0 0-6.396l-45-20l-.053-.022l-.142-.056l-.002-.002l-.004-.002l-.145-.05l-.152-.044l-.153-.04l-.154-.03l-.154-.024l-.156-.017l-.159-.01L50.047 0z" color="#db2777"/></svg>